<svg xmlns="http://www.w3.org/2000/svg" xmlns:xlink="http://www.w3.org/1999/xlink" width="435" zoomAndPan="magnify" viewBox="0 0 326.25 254.999984" height="340" preserveAspectRatio="xMidYMid meet" version="1.0"><defs><g/><clipPath id="737b61a5fd"><path d="M 0 0.292969 L 325.5 0.292969 L 325.5 254.707031 L 0 254.707031 Z M 0 0.292969 " clip-rule="nonzero"/></clipPath><clipPath id="70be82e34e"><path d="M 0 0.292969 L 210 0.292969 L 210 254.707031 L 0 254.707031 Z M 0 0.292969 " clip-rule="nonzero"/></clipPath><clipPath id="abc5c13e0c"><path d="M 0 10 L 208 10 L 208 254.707031 L 0 254.707031 Z M 0 10 " clip-rule="nonzero"/></clipPath><clipPath id="b743695b6c"><rect x="0" width="210" y="0" height="255"/></clipPath><clipPath id="93e891d2e7"><path d="M 102 0.292969 L 325.5 0.292969 L 325.5 254.707031 L 102 254.707031 Z M 102 0.292969 " clip-rule="nonzero"/></clipPath><clipPath id="e7b426c071"><path d="M 47 0.292969 L 223.5 0.292969 L 223.5 254.707031 L 47 254.707031 Z M 47 0.292969 " clip-rule="nonzero"/></clipPath><clipPath id="9376fbd723"><rect x="0" width="224" y="0" height="255"/></clipPath><clipPath id="ff9d5c5edf"><rect x="0" width="326" y="0" height="255"/></clipPath></defs><g clip-path="url(#737b61a5fd)"><g transform="matrix(1, 0, 0, 1, 0, -0.000000000000033307)"><g clip-path="url(#ff9d5c5edf)"><g clip-path="url(#70be82e34e)"><g transform="matrix(1, 0, 0, 1, 0, -0.000000000000033307)"><g clip-path="url(#b743695b6c)"><g clip-path="url(#abc5c13e0c)"><g fill="#000000" fill-opacity="1"><g transform="translate(-3.606653, 253.357366)"><g><path d="M 161.921875 -237.65625 C 162.910156 -240.789062 165.46875 -242.351562 169.59375 -242.34375 C 171.289062 -242.332031 174.679688 -241.707031 179.765625 -240.46875 C 184.859375 -239.238281 190.066406 -237.882812 195.390625 -236.40625 C 200.722656 -234.925781 204.601562 -233.695312 207.03125 -232.71875 C 209.9375 -231.738281 211.378906 -229.425781 211.359375 -225.78125 C 211.359375 -225.300781 211.296875 -224.753906 211.171875 -224.140625 C 211.046875 -223.535156 210.984375 -223.234375 210.984375 -223.234375 C 208.035156 -214.992188 204.523438 -203.054688 200.453125 -187.421875 C 196.378906 -171.796875 192.113281 -153.984375 187.65625 -133.984375 C 183.195312 -113.992188 179.035156 -92.90625 175.171875 -70.71875 C 171.316406 -48.539062 168.128906 -26.660156 165.609375 -5.078125 C 165.359375 -3.140625 164.503906 -1.6875 163.046875 -0.71875 C 161.585938 0.238281 159.882812 0.710938 157.9375 0.703125 C 155.269531 0.691406 151.570312 0.3125 146.84375 -0.4375 C 142.125 -1.1875 137.097656 -2.113281 131.765625 -3.21875 C 126.429688 -4.332031 121.644531 -5.503906 117.40625 -6.734375 C 113.164062 -7.972656 110.070312 -8.960938 108.125 -9.703125 C 105.945312 -10.679688 104.195312 -12.019531 102.875 -13.71875 C 101.550781 -15.425781 100.648438 -17.128906 100.171875 -18.828125 C 97.773438 -27.578125 95.453125 -37.835938 93.203125 -49.609375 C 90.953125 -61.390625 88.882812 -73.65625 87 -86.40625 C 85.113281 -99.15625 83.46875 -111.050781 82.0625 -122.09375 C 80.65625 -133.132812 79.609375 -142.300781 78.921875 -149.59375 C 78.441406 -151.53125 77.835938 -152.5 77.109375 -152.5 C 76.628906 -152.5 76.140625 -151.53125 75.640625 -149.59375 C 71.179688 -128.988281 66.832031 -106.140625 62.59375 -81.046875 C 58.363281 -55.960938 54.734375 -30.8125 51.703125 -5.59375 C 51.453125 -3.894531 50.71875 -2.5 49.5 -1.40625 C 48.28125 -0.320312 46.941406 0.210938 45.484375 0.203125 C 43.054688 0.191406 39.476562 -0.367188 34.75 -1.484375 C 30.03125 -2.597656 25.367188 -3.890625 20.765625 -5.359375 C 16.160156 -6.835938 12.648438 -8.066406 10.234375 -9.046875 C 6.117188 -11.253906 4.066406 -14.421875 4.078125 -18.546875 C 4.367188 -29.222656 5.644531 -42.4375 7.90625 -58.1875 C 10.164062 -73.945312 12.972656 -90.796875 16.328125 -108.734375 C 19.679688 -126.679688 23.210938 -144.195312 26.921875 -161.28125 C 30.640625 -178.375 34.347656 -193.644531 38.046875 -207.09375 C 41.742188 -220.539062 45.066406 -230.65625 48.015625 -237.4375 C 49.484375 -240.820312 52.28125 -242.503906 56.40625 -242.484375 C 58.832031 -242.472656 62.585938 -242.03125 67.671875 -241.15625 C 72.765625 -240.289062 78.160156 -239.296875 83.859375 -238.171875 C 89.554688 -237.054688 94.644531 -235.941406 99.125 -234.828125 C 103.613281 -233.722656 106.585938 -232.921875 108.046875 -232.421875 C 109.984375 -231.679688 111.613281 -230.398438 112.9375 -228.578125 C 114.257812 -226.753906 115.035156 -224.875 115.265625 -222.9375 C 116.210938 -215.894531 117.265625 -207.15625 118.421875 -196.71875 C 119.585938 -186.28125 120.8125 -175.359375 122.09375 -163.953125 C 123.382812 -152.546875 124.550781 -141.5625 125.59375 -131 C 126.632812 -120.445312 127.625 -111.644531 128.5625 -104.59375 C 129.039062 -102.894531 129.523438 -102.046875 130.015625 -102.046875 C 130.734375 -102.035156 131.222656 -102.878906 131.484375 -104.578125 C 134.472656 -122.273438 137.765625 -140.03125 141.359375 -157.84375 C 144.960938 -175.664062 148.554688 -191.722656 152.140625 -206.015625 C 155.722656 -220.316406 158.984375 -230.863281 161.921875 -237.65625 Z M 161.921875 -237.65625 "/></g></g></g></g></g></g></g><g clip-path="url(#93e891d2e7)"><g transform="matrix(1, 0, 0, 1, 102, -0.000000000000033307)"><g clip-path="url(#9376fbd723)"><g clip-path="url(#e7b426c071)"><g fill="#000000" fill-opacity="1"><g transform="translate(55.473182, 265.180209)"><g><path d="M 31.203125 -39.6875 C 26.910156 -53.988281 22.753906 -70.519531 18.734375 -89.28125 C 14.710938 -108.050781 11.191406 -126.78125 8.171875 -145.46875 C 4.953125 -165.34375 2.414062 -183.671875 0.5625 -200.453125 C -1.28125 -217.234375 -2.257812 -229.789062 -2.375 -238.125 C -2.320312 -242.320312 -0.140625 -244.769531 4.171875 -245.46875 C 7.046875 -245.925781 11.125 -246.148438 16.40625 -246.140625 C 21.695312 -246.140625 26.941406 -246.003906 32.140625 -245.734375 C 37.335938 -245.472656 41.09375 -245.039062 43.40625 -244.4375 C 45.4375 -244.019531 47.148438 -243.3125 48.546875 -242.3125 C 49.941406 -241.3125 50.8125 -239.734375 51.15625 -237.578125 C 51.382812 -236.140625 51.59375 -234.453125 51.78125 -232.515625 C 51.976562 -230.585938 52.078125 -229.625 52.078125 -229.625 C 52.941406 -218.207031 54.101562 -205.300781 55.5625 -190.90625 C 57.03125 -176.519531 59.195312 -160.46875 62.0625 -142.75 C 63.6875 -132.695312 65.53125 -122.054688 67.59375 -110.828125 C 69.65625 -99.609375 72.070312 -87.71875 74.84375 -75.15625 C 75.113281 -73.476562 75.613281 -72.695312 76.34375 -72.8125 C 76.8125 -72.882812 77.269531 -73.816406 77.71875 -75.609375 C 79.882812 -86.523438 82.347656 -99.023438 85.109375 -113.109375 C 87.867188 -127.203125 90.738281 -141.738281 93.71875 -156.71875 C 96.707031 -171.707031 99.609375 -186.0625 102.421875 -199.78125 C 105.242188 -213.5 107.835938 -225.585938 110.203125 -236.046875 C 112.566406 -246.515625 114.460938 -254.203125 115.890625 -259.109375 C 116.804688 -262.453125 118.820312 -264.375 121.9375 -264.875 C 123.613281 -265.144531 126.363281 -264.851562 130.1875 -264 C 134.019531 -263.144531 138.253906 -262.046875 142.890625 -260.703125 C 147.535156 -259.367188 151.75 -258.019531 155.53125 -256.65625 C 159.320312 -255.300781 162.03125 -254.144531 163.65625 -253.1875 C 165.800781 -252.0625 167.085938 -250.179688 167.515625 -247.546875 C 167.710938 -246.359375 167.679688 -245.003906 167.421875 -243.484375 C 165.804688 -236.816406 163.625 -227.546875 160.875 -215.671875 C 158.125 -203.804688 155.046875 -190.53125 151.640625 -175.84375 C 148.234375 -161.164062 144.707031 -146.097656 141.0625 -130.640625 C 137.425781 -115.191406 133.757812 -100.285156 130.0625 -85.921875 C 126.375 -71.554688 122.894531 -58.890625 119.625 -47.921875 C 116.363281 -36.953125 113.484375 -28.5625 110.984375 -22.75 C 110.492188 -21.1875 109.359375 -19.832031 107.578125 -18.6875 C 105.796875 -17.539062 104.066406 -16.832031 102.390625 -16.5625 C 97.359375 -15.75 90.75 -15.96875 82.5625 -17.21875 C 74.375 -18.476562 66.210938 -20.296875 58.078125 -22.671875 C 49.953125 -25.046875 43.363281 -27.421875 38.3125 -29.796875 C 36.4375 -30.710938 34.984375 -32.070312 33.953125 -33.875 C 32.929688 -35.6875 32.015625 -37.625 31.203125 -39.6875 Z M 31.203125 -39.6875 "/></g></g></g></g></g></g></g></g></g></g></svg>