<svg xmlns="http://www.w3.org/2000/svg" xmlns:xlink="http://www.w3.org/1999/xlink" width="1366" zoomAndPan="magnify" viewBox="0 0 1024.5 116.999995" height="156" preserveAspectRatio="xMidYMid meet" version="1.0"><defs><g/><clipPath id="f4601631d4"><path d="M 0 0.0273438 L 159 0.0273438 L 159 116.96875 L 0 116.96875 Z M 0 0.0273438 " clip-rule="nonzero"/></clipPath><clipPath id="b95dbf2a68"><path d="M 181 0.0273438 L 213 0.0273438 L 213 116.96875 L 181 116.96875 Z M 181 0.0273438 " clip-rule="nonzero"/></clipPath><clipPath id="3929502ac7"><path d="M 251 0.0273438 L 409 0.0273438 L 409 116.96875 L 251 116.96875 Z M 251 0.0273438 " clip-rule="nonzero"/></clipPath><clipPath id="acdc227e46"><path d="M 429 0.0273438 L 610 0.0273438 L 610 116.96875 L 429 116.96875 Z M 429 0.0273438 " clip-rule="nonzero"/></clipPath><clipPath id="3a63ef3274"><path d="M 653 0.0273438 L 824 0.0273438 L 824 116.96875 L 653 116.96875 Z M 653 0.0273438 " clip-rule="nonzero"/></clipPath><clipPath id="eabde507db"><path d="M 828 0.0273438 L 1023 0.0273438 L 1023 116.96875 L 828 116.96875 Z M 828 0.0273438 " clip-rule="nonzero"/></clipPath></defs><g clip-path="url(#f4601631d4)"><g fill="#000000" fill-opacity="1"><g transform="translate(-4.113143, 196.357701)"><g><path d="M 98.484375 0 L 67.859375 0 L 67.859375 -171.03125 L 4.140625 -171.03125 L 4.140625 -197.234375 L 162.203125 -197.234375 L 162.203125 -171.03125 L 98.484375 -171.03125 Z M 98.484375 0 "/></g></g></g></g><g clip-path="url(#b95dbf2a68)"><g fill="#000000" fill-opacity="1"><g transform="translate(162.233388, 196.357701)"><g><path d="M 49.9375 0 L 19.59375 0 L 19.59375 -197.234375 L 49.9375 -197.234375 Z M 49.9375 0 "/></g></g></g></g><g clip-path="url(#3929502ac7)"><g fill="#000000" fill-opacity="1"><g transform="translate(231.751338, 196.357701)"><g><path d="M 49.9375 0 L 19.59375 0 L 19.59375 -197.234375 L 54.34375 -197.234375 L 145.921875 -45.515625 L 146.484375 -45.515625 L 146.484375 -197.234375 L 177.109375 -197.234375 L 177.109375 0 L 142.34375 0 L 50.484375 -151.71875 L 49.9375 -151.71875 Z M 49.9375 0 "/></g></g></g></g><g clip-path="url(#acdc227e46)"><g fill="#000000" fill-opacity="1"><g transform="translate(428.443043, 196.357701)"><g><path d="M 33.109375 0 L 1.109375 0 L 74.484375 -197.234375 L 107.3125 -197.234375 L 181.234375 0 L 148.140625 0 L 131.859375 -47.453125 L 49.375 -47.453125 Z M 90.484375 -169.109375 L 58.484375 -73.109375 L 123.3125 -73.109375 L 91.03125 -169.109375 Z M 90.484375 -169.109375 "/></g></g></g></g><g clip-path="url(#3a63ef3274)"><g fill="#000000" fill-opacity="1"><g transform="translate(651.341829, 196.357701)"><g><path d="M 104.28125 0 L 71.453125 0 L 1.9375 -197.234375 L 35.3125 -197.234375 L 87.71875 -32 L 88 -32 L 140.140625 -197.234375 L 172.140625 -197.234375 Z M 104.28125 0 "/></g></g></g></g><g clip-path="url(#eabde507db)"><g fill="#000000" fill-opacity="1"><g transform="translate(819.067657, 196.357701)"><g><path d="M 106.75 3.859375 C 87.070312 3.859375 69.96875 -0.550781 55.4375 -9.375 C 40.914062 -18.207031 29.703125 -30.347656 21.796875 -45.796875 C 13.890625 -61.242188 9.9375 -78.894531 9.9375 -98.75 C 9.9375 -118.613281 13.890625 -136.222656 21.796875 -151.578125 C 29.703125 -166.941406 40.914062 -179.035156 55.4375 -187.859375 C 69.96875 -196.679688 87.070312 -201.09375 106.75 -201.09375 C 126.4375 -201.09375 143.539062 -196.679688 158.0625 -187.859375 C 172.59375 -179.035156 183.8125 -166.941406 191.71875 -151.578125 C 199.625 -136.222656 203.578125 -118.613281 203.578125 -98.75 C 203.578125 -78.894531 199.625 -61.242188 191.71875 -45.796875 C 183.8125 -30.347656 172.59375 -18.207031 158.0625 -9.375 C 143.539062 -0.550781 126.4375 3.859375 106.75 3.859375 Z M 106.75 -22.34375 C 122.382812 -22.34375 134.9375 -25.878906 144.40625 -32.953125 C 153.882812 -40.035156 160.828125 -49.414062 165.234375 -61.09375 C 169.648438 -72.78125 171.859375 -85.332031 171.859375 -98.75 C 171.859375 -112.363281 169.648438 -124.914062 165.234375 -136.40625 C 160.828125 -147.90625 153.882812 -157.191406 144.40625 -164.265625 C 134.9375 -171.347656 122.382812 -174.890625 106.75 -174.890625 C 91.300781 -174.890625 78.796875 -171.347656 69.234375 -164.265625 C 59.671875 -157.191406 52.679688 -147.90625 48.265625 -136.40625 C 43.859375 -124.914062 41.65625 -112.363281 41.65625 -98.75 C 41.65625 -85.332031 43.859375 -72.78125 48.265625 -61.09375 C 52.679688 -49.414062 59.671875 -40.035156 69.234375 -32.953125 C 78.796875 -25.878906 91.300781 -22.34375 106.75 -22.34375 Z M 106.75 -22.34375 "/></g></g></g></g></svg>