<svg xmlns="http://www.w3.org/2000/svg" xmlns:xlink="http://www.w3.org/1999/xlink" width="1364" zoomAndPan="magnify" viewBox="0 0 1023 116.999995" height="156" preserveAspectRatio="xMidYMid meet" version="1.0"><defs><g/></defs><g fill="#000000" fill-opacity="1"><g transform="translate(-4.110774, 196.424975)"><g><path d="M 98.53125 0 L 67.890625 0 L 67.890625 -171.125 L 4.140625 -171.125 L 4.140625 -197.34375 L 162.28125 -197.34375 L 162.28125 -171.125 L 98.53125 -171.125 Z M 98.53125 0 "/></g></g></g><g fill="#000000" fill-opacity="1"><g transform="translate(162.316934, 196.424975)"><g><path d="M 49.953125 0 L 19.59375 0 L 19.59375 -197.34375 L 49.953125 -197.34375 Z M 49.953125 0 "/></g></g></g><g fill="#000000" fill-opacity="1"><g transform="translate(231.868808, 196.424975)"><g><path d="M 49.953125 0 L 19.59375 0 L 19.59375 -197.34375 L 54.375 -197.34375 L 146 -45.546875 L 146.5625 -45.546875 L 146.5625 -197.34375 L 177.1875 -197.34375 L 177.1875 0 L 142.421875 0 L 50.515625 -151.796875 L 49.953125 -151.796875 Z M 49.953125 0 "/></g></g></g><g fill="#000000" fill-opacity="1"><g transform="translate(428.656499, 196.424975)"><g><path d="M 33.125 0 L 1.109375 0 L 74.515625 -197.34375 L 107.359375 -197.34375 L 181.328125 0 L 148.21875 0 L 131.921875 -47.46875 L 49.40625 -47.46875 Z M 90.53125 -169.1875 L 58.515625 -73.140625 L 123.375 -73.140625 L 91.078125 -169.1875 Z M 90.53125 -169.1875 "/></g></g></g><g fill="#000000" fill-opacity="1"><g transform="translate(651.66406, 196.424975)"><g><path d="M 104.328125 0 L 71.484375 0 L 1.9375 -197.34375 L 35.328125 -197.34375 L 87.765625 -32.015625 L 88.046875 -32.015625 L 140.203125 -197.34375 L 172.21875 -197.34375 Z M 104.328125 0 "/></g></g></g><g fill="#000000" fill-opacity="1"><g transform="translate(819.471739, 196.424975)"><g><path d="M 106.8125 3.859375 C 87.125 3.859375 70.007812 -0.550781 55.46875 -9.375 C 40.9375 -18.207031 29.710938 -30.351562 21.796875 -45.8125 C 13.890625 -61.269531 9.9375 -78.9375 9.9375 -98.8125 C 9.9375 -118.675781 13.890625 -136.289062 21.796875 -151.65625 C 29.710938 -167.019531 40.9375 -179.117188 55.46875 -187.953125 C 70.007812 -196.785156 87.125 -201.203125 106.8125 -201.203125 C 126.5 -201.203125 143.609375 -196.785156 158.140625 -187.953125 C 172.679688 -179.117188 183.90625 -167.019531 191.8125 -151.65625 C 199.726562 -136.289062 203.6875 -118.675781 203.6875 -98.8125 C 203.6875 -78.9375 199.726562 -61.269531 191.8125 -45.8125 C 183.90625 -30.351562 172.679688 -18.207031 158.140625 -9.375 C 143.609375 -0.550781 126.5 3.859375 106.8125 3.859375 Z M 106.8125 -22.359375 C 122.445312 -22.359375 135.003906 -25.898438 144.484375 -32.984375 C 153.960938 -40.066406 160.910156 -49.445312 165.328125 -61.125 C 169.742188 -72.8125 171.953125 -85.375 171.953125 -98.8125 C 171.953125 -112.425781 169.742188 -124.984375 165.328125 -136.484375 C 160.910156 -147.984375 153.960938 -157.273438 144.484375 -164.359375 C 135.003906 -171.441406 122.445312 -174.984375 106.8125 -174.984375 C 91.351562 -174.984375 78.835938 -171.441406 69.265625 -164.359375 C 59.703125 -157.273438 52.710938 -147.984375 48.296875 -136.484375 C 43.878906 -124.984375 41.671875 -112.425781 41.671875 -98.8125 C 41.671875 -85.375 43.878906 -72.8125 48.296875 -61.125 C 52.710938 -49.445312 59.703125 -40.066406 69.265625 -32.984375 C 78.835938 -25.898438 91.351562 -22.359375 106.8125 -22.359375 Z M 106.8125 -22.359375 "/></g></g></g></svg>