<svg xmlns="http://www.w3.org/2000/svg" xmlns:xlink="http://www.w3.org/1999/xlink" width="1365" zoomAndPan="magnify" viewBox="0 0 1023.75 197.249993" height="263" preserveAspectRatio="xMidYMid meet" version="1.0"><defs><g/><clipPath id="e7318abe4e"><path d="M 1.8125 0 L 160 0 L 160 196 L 1.8125 196 Z M 1.8125 0 " clip-rule="nonzero"/></clipPath><clipPath id="34eed4c75d"><path d="M 828 0 L 1021.6875 0 L 1021.6875 196.503906 L 828 196.503906 Z M 828 0 " clip-rule="nonzero"/></clipPath></defs><g clip-path="url(#e7318abe4e)"><g fill="#000000" fill-opacity="1"><g transform="translate(-2.248265, 195.755667)"><g><path d="M 98.15625 0 L 67.640625 0 L 67.640625 -170.46875 L 4.125 -170.46875 L 4.125 -196.59375 L 161.671875 -196.59375 L 161.671875 -170.46875 L 98.15625 -170.46875 Z M 98.15625 0 "/></g></g></g></g><g fill="#000000" fill-opacity="1"><g transform="translate(163.549036, 195.755667)"><g><path d="M 49.765625 0 L 19.515625 0 L 19.515625 -196.59375 L 49.765625 -196.59375 Z M 49.765625 0 "/></g></g></g><g fill="#000000" fill-opacity="1"><g transform="translate(232.837457, 195.755667)"><g><path d="M 49.765625 0 L 19.515625 0 L 19.515625 -196.59375 L 54.171875 -196.59375 L 145.453125 -45.375 L 146 -45.375 L 146 -196.59375 L 176.515625 -196.59375 L 176.515625 0 L 141.875 0 L 50.3125 -151.21875 L 49.765625 -151.21875 Z M 49.765625 0 "/></g></g></g><g fill="#000000" fill-opacity="1"><g transform="translate(428.879741, 195.755667)"><g><path d="M 33 0 L 1.09375 0 L 74.234375 -196.59375 L 106.953125 -196.59375 L 180.640625 0 L 147.65625 0 L 131.421875 -47.296875 L 49.21875 -47.296875 Z M 90.1875 -168.546875 L 58.296875 -72.859375 L 122.90625 -72.859375 L 90.734375 -168.546875 Z M 90.1875 -168.546875 "/></g></g></g><g fill="#000000" fill-opacity="1"><g transform="translate(601.825808, 195.755667)"><g/></g></g><g fill="#000000" fill-opacity="1"><g transform="translate(651.042584, 195.755667)"><g><path d="M 103.9375 0 L 71.21875 0 L 1.921875 -196.59375 L 35.1875 -196.59375 L 87.4375 -31.890625 L 87.703125 -31.890625 L 139.671875 -196.59375 L 171.578125 -196.59375 Z M 103.9375 0 "/></g></g></g><g clip-path="url(#34eed4c75d)"><g fill="#000000" fill-opacity="1"><g transform="translate(818.214628, 195.755667)"><g><path d="M 106.40625 3.84375 C 86.789062 3.84375 69.742188 -0.550781 55.265625 -9.34375 C 40.785156 -18.144531 29.601562 -30.242188 21.71875 -45.640625 C 13.832031 -61.035156 9.890625 -78.632812 9.890625 -98.4375 C 9.890625 -118.226562 13.832031 -135.773438 21.71875 -151.078125 C 29.601562 -166.390625 40.785156 -178.441406 55.265625 -187.234375 C 69.742188 -196.035156 86.789062 -200.4375 106.40625 -200.4375 C 126.019531 -200.4375 143.066406 -196.035156 157.546875 -187.234375 C 172.023438 -178.441406 183.207031 -166.390625 191.09375 -151.078125 C 198.976562 -135.773438 202.921875 -118.226562 202.921875 -98.4375 C 202.921875 -78.632812 198.976562 -61.035156 191.09375 -45.640625 C 183.207031 -30.242188 172.023438 -18.144531 157.546875 -9.34375 C 143.066406 -0.550781 126.019531 3.84375 106.40625 3.84375 Z M 106.40625 -22.265625 C 121.988281 -22.265625 134.5 -25.789062 143.9375 -32.84375 C 153.375 -39.90625 160.289062 -49.253906 164.6875 -60.890625 C 169.09375 -72.535156 171.296875 -85.050781 171.296875 -98.4375 C 171.296875 -112 169.09375 -124.507812 164.6875 -135.96875 C 160.289062 -147.425781 153.375 -156.679688 143.9375 -163.734375 C 134.5 -170.785156 121.988281 -174.3125 106.40625 -174.3125 C 91.007812 -174.3125 78.546875 -170.785156 69.015625 -163.734375 C 59.484375 -156.679688 52.515625 -147.425781 48.109375 -135.96875 C 43.710938 -124.507812 41.515625 -112 41.515625 -98.4375 C 41.515625 -85.050781 43.710938 -72.535156 48.109375 -60.890625 C 52.515625 -49.253906 59.484375 -39.90625 69.015625 -32.84375 C 78.546875 -25.789062 91.007812 -22.265625 106.40625 -22.265625 Z M 106.40625 -22.265625 "/></g></g></g></g></svg>