<svg width="1421" height="264" viewBox="0 0 1421 264" fill="none" xmlns="http://www.w3.org/2000/svg">
<g clip-path="url(#clip0_8709_132)">
<path d="M157.09 264H116.02V34.6H30.55V-0.550012H242.56V34.6H157.09V264ZM314.909 264H274.209V-0.550012H314.909V264ZM408.132 264H367.432V-0.550012H414.052L536.892 202.95H537.632V-0.550012H578.702V264H532.082L408.872 60.5H408.132V264ZM649.332 264H606.412L704.832 -0.550012H748.862L848.022 264H803.622L781.792 200.36H671.162L649.332 264ZM726.292 37.19L683.372 165.95H770.322L727.032 37.19H726.292ZM1043.61 264H999.58L906.34 -0.550012H951.11L1021.41 221.08H1021.78L1091.71 -0.550012H1134.63L1043.61 264ZM1271.69 269.18C1192.51 269.18 1141.82 211.09 1141.82 131.54C1141.82 51.99 1192.51 -5.73001 1271.69 -5.73001C1350.87 -5.73001 1401.56 51.99 1401.56 131.54C1401.56 211.09 1350.87 269.18 1271.69 269.18ZM1271.69 234.03C1334.22 234.03 1359.01 185.93 1359.01 131.54C1359.01 77.15 1334.22 29.42 1271.69 29.42C1209.16 29.42 1184.37 77.15 1184.37 131.54C1184.37 185.93 1209.16 234.03 1271.69 234.03Z" fill="#0E0E0C"/>
</g>
<defs>
<clipPath id="clip0_8709_132">
<rect width="1440" height="264" fill="white"/>
</clipPath>
</defs>
</svg>
